<svg width="250" height="39" viewBox="0 0 250 39" fill="none" xmlns="http://www.w3.org/2000/svg">
<g filter="url(#filter0_d_1_6166)">
<path d="M7.984 4.7V13.412H16.212V17.372H7.984V30H4.2V0.739999H20.216V4.7H7.984ZM33.1211 12.224C32.4171 11.9013 31.7864 11.74 31.2291 11.74C30.0557 11.74 29.0877 12.1507 28.3251 12.972C27.5037 13.852 27.0931 14.864 27.0931 16.008V30H23.3091V16.008C23.3091 14.424 23.7051 12.972 24.4971 11.652C25.3184 10.332 26.4331 9.30533 27.8411 8.572C28.8971 8.07333 30.0264 7.824 31.2291 7.824C32.1971 7.824 33.1211 8 34.0011 8.352C34.8811 8.704 35.8051 9.276 36.7731 10.068L33.1211 12.224ZM41.9052 20.672C41.9052 21.376 42.1546 22.1093 42.6532 22.872C43.1812 23.6347 43.7826 24.28 44.4572 24.808C45.6892 25.776 47.1266 26.26 48.7693 26.26C51.3799 26.26 53.5066 24.9987 55.1492 22.476L58.4932 24.456C57.3493 26.304 55.9413 27.7267 54.2693 28.724C52.5973 29.7213 50.7639 30.22 48.7693 30.22C47.2733 30.22 45.8506 29.9413 44.5012 29.384C43.1519 28.7973 41.9639 27.9907 40.9372 26.964C39.9106 25.9373 39.1039 24.7493 38.5172 23.4C37.9599 22.0507 37.6812 20.628 37.6812 19.132C37.6812 17.636 37.9599 16.2133 38.5172 14.864C39.1039 13.4853 39.9106 12.2827 40.9372 11.256C41.9346 10.2293 43.1079 9.43733 44.4572 8.88C45.8359 8.32267 47.2733 8.044 48.7693 8.044C50.2653 8.044 51.6879 8.32267 53.0373 8.88C54.4159 9.43733 55.6039 10.2293 56.6013 11.256C58.7719 13.4853 59.8573 16.0667 59.8573 19C59.8573 19.528 59.8133 20.0853 59.7252 20.672H41.9052ZM48.7693 11.652C47.5666 11.652 46.4372 11.916 45.3812 12.444C44.3252 12.972 43.4746 13.676 42.8292 14.556C42.2132 15.4067 41.9052 16.316 41.9052 17.284H55.6332C55.6332 16.316 55.3106 15.4067 54.6653 14.556C54.0493 13.676 53.2133 12.972 52.1573 12.444C51.1012 11.916 49.9719 11.652 48.7693 11.652ZM75.7949 14.556C75.7069 14.028 75.5162 13.5293 75.2229 13.06C74.6655 12.092 73.5655 11.608 71.9229 11.608C71.0429 11.608 70.3682 11.7107 69.8989 11.916C69.2829 12.1507 68.8135 12.488 68.4909 12.928C68.1975 13.368 68.0509 13.852 68.0509 14.38C68.0509 15.0253 68.2855 15.612 68.7549 16.14C69.2535 16.6973 70.0602 16.9907 71.1749 17.02C73.1402 17.108 74.7242 17.3427 75.9269 17.724C77.1589 18.1053 78.0975 18.7653 78.7429 19.704C79.4175 20.6427 79.7549 21.9627 79.7549 23.664C79.7549 25.3947 79.0949 26.8907 77.7749 28.152C77.1295 28.768 76.3669 29.2667 75.4869 29.648C74.6362 30.0293 73.7415 30.22 72.8029 30.22H72.1429C69.7962 30.22 67.9042 29.5453 66.4669 28.196C65.2935 27.1107 64.5602 25.5853 64.2669 23.62H68.1829C68.3295 24.324 68.6229 24.896 69.0629 25.336C69.7375 25.9813 70.6762 26.304 71.8789 26.304C72.2015 26.304 72.4362 26.2893 72.5829 26.26C73.6095 26.2013 74.4162 25.9227 75.0029 25.424C75.5895 24.896 75.8829 24.2507 75.8829 23.488C75.8829 22.432 75.5602 21.7427 74.9149 21.42C74.2695 21.0973 73.0229 20.936 71.1749 20.936C68.8575 20.936 67.0829 20.2027 65.8509 18.736C64.8535 17.6213 64.3549 16.2133 64.3549 14.512C64.3549 14.1307 64.3695 13.8373 64.3989 13.632C64.6335 11.7253 65.4109 10.2733 66.7309 9.276C68.0802 8.24933 69.8549 7.736 72.0549 7.736C73.6682 7.736 75.0762 8.088 76.2789 8.792C77.1295 9.32 77.8629 10.0533 78.4789 10.992C79.0655 11.9307 79.4469 13.104 79.6229 14.512L79.5349 14.556H75.7949ZM98.6151 30V16.492C98.6151 15.1133 98.1311 13.94 97.1631 12.972C96.7231 12.532 96.1951 12.18 95.5791 11.916C94.9924 11.652 94.3911 11.52 93.7751 11.52C92.4551 11.52 91.3111 12.004 90.3431 12.972C89.3751 13.94 88.8911 15.1133 88.8911 16.492V30H85.0191V0.651998H88.8911V9.54C90.2991 8.22 91.9271 7.56 93.7751 7.56C94.9484 7.56 96.0631 7.79466 97.1191 8.264C98.1751 8.704 99.1137 9.33467 99.9351 10.156C100.727 10.9773 101.343 11.9453 101.783 13.06C102.252 14.1453 102.487 15.2893 102.487 16.492V30H98.6151ZM121.234 15.92C119.855 17.2107 117.963 18.164 115.558 18.78C113.945 19.1907 112.874 19.9827 112.346 21.156C111.847 22.3 111.598 23.928 111.598 26.04H122.51V30H107.946C107.829 28.944 107.77 27.7853 107.77 26.524C107.77 19.9533 110.073 16.096 114.678 14.952C116.057 14.6587 117.23 14.1453 118.198 13.412C119.43 12.444 120.046 11.2413 120.046 9.804C120.046 8.42533 119.562 7.22267 118.594 6.196C117.655 5.19867 116.497 4.7 115.118 4.7H108.474V0.739999H115.118C116.321 0.739999 117.45 0.974665 118.506 1.444C119.562 1.91333 120.501 2.55867 121.322 3.38C122.143 4.20133 122.774 5.16933 123.214 6.284C123.683 7.39866 123.918 8.572 123.918 9.804C123.918 12.268 123.023 14.3067 121.234 15.92ZM147.03 30V26.656C146.091 27.7413 145.006 28.6067 143.774 29.252C142.542 29.8973 141.237 30.22 139.858 30.22C138.333 30.22 136.895 29.9413 135.546 29.384C134.226 28.8267 133.053 28.0347 132.026 27.008C130.999 26.0107 130.193 24.8373 129.606 23.488C129.049 22.1093 128.77 20.672 128.77 19.176C128.77 17.68 129.049 16.2573 129.606 14.908C130.193 13.5293 130.999 12.3267 132.026 11.3C133.053 10.2733 134.226 9.48133 135.546 8.924C136.895 8.36667 138.333 8.088 139.858 8.088C141.266 8.088 142.586 8.38133 143.818 8.968C145.079 9.55467 146.15 10.376 147.03 11.432V8.528H150.99V30H147.03ZM139.858 12.004C138.89 12.004 137.951 12.1947 137.042 12.576C136.162 12.928 135.399 13.4267 134.754 14.072C134.109 14.7173 133.595 15.4947 133.214 16.404C132.862 17.284 132.686 18.208 132.686 19.176C132.686 20.144 132.862 21.068 133.214 21.948C133.595 22.828 134.109 23.5907 134.754 24.236C135.399 24.8813 136.162 25.3947 137.042 25.776C137.951 26.128 138.89 26.304 139.858 26.304C140.826 26.304 141.75 26.128 142.63 25.776C143.51 25.3947 144.273 24.8813 144.918 24.236C145.563 23.5907 146.062 22.828 146.414 21.948C146.795 21.068 146.986 20.144 146.986 19.176C146.986 18.208 146.795 17.284 146.414 16.404C146.062 15.4947 145.563 14.7173 144.918 14.072C144.273 13.4267 143.51 12.928 142.63 12.576C141.75 12.1947 140.826 12.004 139.858 12.004ZM166.51 12.224C165.806 11.9013 165.175 11.74 164.618 11.74C163.444 11.74 162.476 12.1507 161.714 12.972C160.892 13.852 160.482 14.864 160.482 16.008V30H156.698V16.008C156.698 14.424 157.094 12.972 157.886 11.652C158.707 10.332 159.822 9.30533 161.23 8.572C162.286 8.07333 163.415 7.824 164.618 7.824C165.586 7.824 166.51 8 167.39 8.352C168.27 8.704 169.194 9.276 170.162 10.068L166.51 12.224ZM182.654 12.224C181.95 11.9013 181.319 11.74 180.762 11.74C179.589 11.74 178.621 12.1507 177.858 12.972C177.037 13.852 176.626 14.864 176.626 16.008V30H172.842V16.008C172.842 14.424 173.238 12.972 174.03 11.652C174.851 10.332 175.966 9.30533 177.374 8.572C178.43 8.07333 179.559 7.824 180.762 7.824C181.73 7.824 182.654 8 183.534 8.352C184.414 8.704 185.338 9.276 186.306 10.068L182.654 12.224ZM192.299 4.832C191.742 4.832 191.258 4.64133 190.847 4.26C190.466 3.84933 190.275 3.36533 190.275 2.808C190.275 2.25067 190.466 1.78133 190.847 1.4C191.258 0.989332 191.742 0.783998 192.299 0.783998C192.857 0.783998 193.326 0.989332 193.707 1.4C194.118 1.78133 194.323 2.25067 194.323 2.808C194.323 3.36533 194.118 3.84933 193.707 4.26C193.326 4.64133 192.857 4.832 192.299 4.832ZM190.495 30V8H194.191V30H190.495ZM212.028 30H208.288L199.62 8H203.8L210.18 24.06L216.516 8H220.696L212.028 30ZM227.121 20.672C227.121 21.376 227.371 22.1093 227.869 22.872C228.397 23.6347 228.999 24.28 229.673 24.808C230.905 25.776 232.343 26.26 233.985 26.26C236.596 26.26 238.723 24.9987 240.365 22.476L243.709 24.456C242.565 26.304 241.157 27.7267 239.485 28.724C237.813 29.7213 235.98 30.22 233.985 30.22C232.489 30.22 231.067 29.9413 229.717 29.384C228.368 28.7973 227.18 27.9907 226.153 26.964C225.127 25.9373 224.32 24.7493 223.733 23.4C223.176 22.0507 222.897 20.628 222.897 19.132C222.897 17.636 223.176 16.2133 223.733 14.864C224.32 13.4853 225.127 12.2827 226.153 11.256C227.151 10.2293 228.324 9.43733 229.673 8.88C231.052 8.32267 232.489 8.044 233.985 8.044C235.481 8.044 236.904 8.32267 238.253 8.88C239.632 9.43733 240.82 10.2293 241.817 11.256C243.988 13.4853 245.073 16.0667 245.073 19C245.073 19.528 245.029 20.0853 244.941 20.672H227.121ZM233.985 11.652C232.783 11.652 231.653 11.916 230.597 12.444C229.541 12.972 228.691 13.676 228.045 14.556C227.429 15.4067 227.121 16.316 227.121 17.284H240.849C240.849 16.316 240.527 15.4067 239.881 14.556C239.265 13.676 238.429 12.972 237.373 12.444C236.317 11.916 235.188 11.652 233.985 11.652Z" fill="#4169E2"/>
</g>
<defs>
<filter id="filter0_d_1_6166" x="0.199951" y="0.6521" width="248.873" height="37.5679" filterUnits="userSpaceOnUse" color-interpolation-filters="sRGB">
<feFlood flood-opacity="0" result="BackgroundImageFix"/>
<feColorMatrix in="SourceAlpha" type="matrix" values="0 0 0 0 0 0 0 0 0 0 0 0 0 0 0 0 0 0 127 0" result="hardAlpha"/>
<feOffset dy="4"/>
<feGaussianBlur stdDeviation="2"/>
<feComposite in2="hardAlpha" operator="out"/>
<feColorMatrix type="matrix" values="0 0 0 0 0 0 0 0 0 0 0 0 0 0 0 0 0 0 0.25 0"/>
<feBlend mode="normal" in2="BackgroundImageFix" result="effect1_dropShadow_1_6166"/>
<feBlend mode="normal" in="SourceGraphic" in2="effect1_dropShadow_1_6166" result="shape"/>
</filter>
</defs>
</svg>
